<svg width="557" height="554" xmlns="http://www.w3.org/2000/svg" version="1.1">
    <g>
        <path
            d="m279,38.19467a238.80533,238.80533 0 1 1 -238.80533,238.80533a238.80533,238.80533 0 0 1 238.80533,-238.80533m0,-38.528a277.33333,277.33333 0 1 0 277.33333,277.33333a277.33333,277.33333 0 0 0 -277.33333,-277.33333z"
            id="circle1" />
        <path id="line1"
            d="m444.15733,336.928a14.67733,14.67733 0 0 0 -12.8,7.44533a96,96 0 0 1 -137.10933,24.66134a125.09867,125.09867 0 0 0 -188.032,24.14933a14.208,14.208 0 0 0 -1.28,2.13333a5.80267,5.80267 0 0 0 -0.66133,1.408a14.656,14.656 0 0 0 24.14933,15.68a6.272,6.272 0 0 0 1.28,-1.49333a96.832,96.832 0 0 1 13.248,-16.49067a95.76533,95.76533 0 0 1 124.62933,-9.30133a125.07733,125.07733 0 0 0 189.26934,-26.176a5.824,5.824 0 0 0 0.68266,-1.49333a14.63467,14.63467 0 0 0 -13.44,-20.43734l0.064,-0.08533z" />
        <path id="line2"
            d="m436.15733,143.928a14.67733,14.67733 0 0 0 -12.8,7.44533a96,96 0 0 1 -137.10933,24.66134a125.09867,125.09867 0 0 0 -188.032,24.14933a14.208,14.208 0 0 0 -1.28,2.13333a5.80267,5.80267 0 0 0 -0.66133,1.408a14.656,14.656 0 0 0 24.14933,15.68a6.272,6.272 0 0 0 1.28,-1.49333a96.832,96.832 0 0 1 13.248,-16.49067a95.76533,95.76533 0 0 1 124.62933,-9.30133a125.07733,125.07733 0 0 0 189.26934,-26.176a5.824,5.824 0 0 0 0.68266,-1.49333a14.63467,14.63467 0 0 0 -13.44,-20.43734l0.064,-0.08533z"
        />
        <path id="line3"
            d="m440.15733,239.928a14.67733,14.67733 0 0 0 -12.8,7.44533a96,96 0 0 1 -137.10933,24.66134a125.09867,125.09867 0 0 0 -188.032,24.14933a14.208,14.208 0 0 0 -1.28,2.13333a5.80267,5.80267 0 0 0 -0.66133,1.408a14.656,14.656 0 0 0 24.14933,15.68a6.272,6.272 0 0 0 1.28,-1.49333a96.832,96.832 0 0 1 13.248,-16.49067a95.76533,95.76533 0 0 1 124.62933,-9.30133a125.07733,125.07733 0 0 0 189.26934,-26.176a5.824,5.824 0 0 0 0.68266,-1.49333a14.63467,14.63467 0 0 0 -13.44,-20.43734l0.064,-0.08533z" />
    </g>
</svg>